<svg width="512" height="512" viewBox="0 0 512 512" fill="none" xmlns="http://www.w3.org/2000/svg">
<path d="M221.02 179.396C195.521 179.325 170.694 171.078 150.073 155.83C131.491 142.061 99.9252 115.269 97.3253 91.0613C96.8547 87.3836 97.1743 83.6458 98.2622 80.1059C99.3501 76.5659 101.18 73.3081 103.627 70.557C108.812 64.5834 116.024 61.2382 125.058 60.6557C125.983 60.6557 126.938 60.5661 127.907 60.5661C144.212 60.5661 165.349 69.4369 185.546 84.341C184.033 65.8976 189.351 52.457 200.69 47.8424H200.808C202.705 47.009 204.725 46.5042 206.786 46.349H207.844C219.698 46.349 228.937 58.3708 235.752 72.3938C247.283 40.5098 266.775 12.0157 287.369 10.6418H288.838C291.83 10.6373 294.793 11.2468 297.548 12.4339C326.353 24.8888 314.132 81.2945 303.659 109.385C292.576 139.285 270.376 163.556 241.848 176.962L239.939 177.902L237.765 178.201C234.827 178.634 231.684 178.948 228.643 179.142C226.073 179.306 223.531 179.396 221.02 179.396Z" fill="#1D1D1B"/>
<path d="M227.633 164.238C203.025 165.798 178.655 158.561 158.743 143.779C131.245 123.379 113.34 102.561 111.929 89.449C111.698 87.8428 111.823 86.2043 112.296 84.6538C112.769 83.1033 113.577 81.68 114.662 80.4886C117.203 77.5018 120.919 76.0084 125.987 75.6201C142.144 74.5747 167.527 87.0297 189.325 106.593L210.08 125.261L202.868 98.051C198.079 79.936 199.519 64.4047 206.158 61.6867L206.481 61.5523C206.857 61.3762 207.259 61.2652 207.671 61.2238C211.329 60.9848 220.23 69.6764 228.573 94.0785L237.489 120.064L244.481 93.4662C254.866 53.936 275.504 26.4873 288.268 25.6659C289.479 25.5817 290.693 25.7916 291.808 26.2782C305.792 32.2518 302.091 71.4237 289.899 104.174C280.169 130.42 260.681 151.725 235.638 163.492C232.994 163.79 230.306 164.074 227.633 164.238Z" fill="url(#paint0_linear_1443_67)"/>
<path d="M277.089 502.358C270.316 502.242 263.778 499.818 258.522 495.474C252.74 498.757 246.21 500.436 239.588 500.342C230.774 500.431 222.175 497.571 215.117 492.203C209.412 487.778 204.166 482.774 199.458 477.269C196.939 478.577 194.149 479.253 191.321 479.24C184.549 479.24 178.894 475.492 175.163 472.669C143.347 448.208 110.327 406.706 86.8835 361.725C84.4158 356.976 73.1642 334.485 71.8569 315.564C64.6272 306.29 59.2439 295.674 56.0077 284.307C54.2508 278.085 53.9549 271.53 55.1437 265.17C56.3326 258.81 58.973 252.822 62.8526 247.689C51.4835 234.846 46.3425 215.954 50.3231 196.465C56.1986 167.912 77.6736 144.391 89.9828 132.906C95.4471 127.799 101.22 125.215 107.139 125.215C109.798 125.153 112.441 125.651 114.901 126.679C117.361 127.708 119.585 129.243 121.432 131.189C127.301 124.775 134.2 119.423 141.834 115.359C148.963 111.569 156.881 109.572 164.925 109.535C173.521 109.554 181.939 112.027 189.22 116.673C192.396 110.367 196.861 104.824 202.315 100.415C207.769 96.0053 214.087 92.8316 220.845 91.1062C225.098 89.9632 229.476 89.376 233.874 89.3589C240.107 89.3645 246.277 90.6281 252.026 93.0763C257.775 95.5245 262.988 99.1086 267.365 103.621C268.647 101.164 270.215 98.8724 272.036 96.796C274.717 93.7303 278.016 91.2883 281.709 89.6363C285.403 87.9844 289.403 87.1614 293.437 87.2233C295.407 87.2339 297.372 87.4087 299.313 87.746C315.4 90.631 330.209 98.5267 341.69 110.341C342.353 109.186 343.12 108.096 343.981 107.086C345.692 105.026 347.824 103.372 350.23 102.24C352.635 101.107 355.255 100.523 357.906 100.529C359.124 100.53 360.339 100.65 361.534 100.888C367.41 102.038 377.296 106.294 388.077 120.81C389.257 120.57 390.458 120.45 391.661 120.451C393.347 120.455 395.026 120.681 396.655 121.123L397.155 121.258C400.165 118.37 404.15 116.766 408.289 116.778C410.671 116.79 413.026 117.298 415.207 118.271C447.978 132.653 458.862 181.711 462.211 220.315C463.68 236.996 464.899 274.988 448.242 289.474C448.242 290.37 448.125 291.251 448.037 292.133C442.161 349.897 417.69 412.934 384.067 456.63C382.495 458.661 378.999 463.216 373.594 465.352C369.364 475.328 362.915 483.541 351.693 483.75H351.34C348.899 483.775 346.476 483.324 344.202 482.421C340.919 486.013 336.5 488.318 331.716 488.933C330.257 489.15 328.784 489.265 327.31 489.276C325.411 489.28 323.518 489.06 321.669 488.619C321.434 488.918 321.17 489.216 320.905 489.515C318.569 492.189 315.703 494.331 312.496 495.8C309.289 497.27 305.812 498.034 302.295 498.042H301.736C298.555 497.976 295.436 497.131 292.644 495.578C289.912 498.843 286.165 501.061 282.024 501.865C280.398 502.19 278.746 502.355 277.089 502.358V502.358Z" fill="#1D1D1B"/>
<path d="M445.584 220.121C443.16 192.12 434.802 142.464 407.393 130.517C400.386 127.441 406.776 151.932 408.201 159.399L407.555 159.28C404.778 152.545 397.566 135.863 390.971 134.116C385.389 132.623 385.095 140.239 386.887 149.408L386.344 149.304C380.204 135.863 368.306 116.36 356.775 114.105C347.771 112.357 350.077 137.7 352.677 155.531C340.926 128.247 322.462 105.816 294.847 101.022C270.787 96.8259 272.565 135.042 274.885 157.368C271.287 130.771 254.321 95.676 222.476 104.069C203.806 108.967 195.977 125.634 193.319 145.048C185.93 125.902 165.762 117.136 146.476 127.127C133.256 133.967 121.255 147.766 115.865 163.103C114.645 150.842 111.003 130.114 97.8708 142.404C82.6092 156.651 67.0243 176.947 62.6177 198.004C58.637 217.672 66.804 239.983 87.1774 246.136L87.2508 247.196C85.9435 247.57 84.4893 247.704 83.0939 248.107C70.2853 251.721 64.8063 266.67 68.0819 278.812C71.2914 289.868 76.864 300.067 84.4012 308.679C83.3289 323.24 94.4777 346.94 97.7827 353.302C117.407 390.951 148.077 433.274 182.023 459.334C199.253 472.58 191.497 445.37 186.738 431.422C198.239 451.702 204.365 465.128 221.991 478.882C234.726 488.843 258.596 483.556 255.202 467.428C261.739 482.556 270.787 487.036 277.177 485.722C282.509 484.647 283.581 472.281 281.936 461.633C280.732 453.808 280.467 452.568 278.793 444.594L279.468 444.504C283.126 457.751 290.793 481.406 300.033 481.615C308.156 481.794 313.664 472.341 312.562 460.454C312.239 456.855 311.842 452.509 311.255 447.834C316.499 471.55 320.759 473.64 327.618 472.655C335.55 471.505 337.225 455.69 337.739 440.128C338.003 432.467 337.739 436.201 337.313 428.584L338.018 428.226C339.369 438.68 339.09 467.517 349.387 467.323C357.084 467.174 360.815 450.612 364.076 438.247C363.003 448.372 363.811 454.674 370.539 445.923C403.295 403.346 425.974 343.446 431.468 289.116C431.819 285.567 431.66 281.985 430.998 278.483C432.338 278.708 433.713 278.488 434.92 277.856C447.053 271.837 447.053 236.354 445.584 220.121ZM318.115 214.282H319.304C322.668 214.162 326.81 220.509 327.075 224.736C327.251 227.722 326.208 230.171 323.065 230.351C319.143 230.545 315.955 225.139 315.573 220.509C315.353 217.478 316.322 215.357 318.129 214.282H318.115ZM325.459 255.634L326.928 255.141C328.397 262.922 331.54 277.751 336.52 288.295C333.346 287.514 330.09 287.128 326.825 287.145C328.235 277.124 326.605 263.863 325.459 255.634ZM275.4 162.073C275.723 164.94 276.031 167.389 276.237 169.211C277.206 178.171 280.35 203.932 285.535 230.261C281.128 220.345 274.739 211.982 264.97 209.085C264.897 208.413 264.853 208.069 264.78 207.397C276.105 193.972 276.927 178.291 275.4 162.073ZM282.45 303.945C293.379 302.96 296.169 282.052 295.244 269.433C298.578 279.782 302.339 288.519 306.51 294.119C293.981 305.887 293.393 330.886 295.391 352.869C292.248 327.481 278.778 301.616 253.146 299.331C254.615 288.041 253.249 272.45 252.088 264.176C250.987 256.246 249.239 247.749 247.858 240.132L248.872 239.938C253.851 256.515 264.662 305.513 282.45 303.886V303.945ZM250.737 204.007C246.536 204.873 242.761 199.288 242.056 193.404C241.513 188.924 243.73 186.236 245.831 185.788C249.621 184.981 253.557 191.403 254.189 196.928C254.527 199.826 254.292 203.201 250.737 203.947V204.007ZM113.47 187.117C115.439 199.945 122.166 205.754 132.478 202.23C134.035 201.707 137.868 198.422 139.043 197.376C135.672 214.063 135.077 231.206 137.281 248.092C139.425 264.266 146.476 289.176 159.314 304.632C136.737 307.798 140.454 330.468 147.005 349.166C150.677 359.619 155.054 370.073 159.887 380.452C153.292 373.224 145.58 368.057 136.679 367.49L136.15 366.638C140.556 364.503 145.683 359.007 138.045 338.697C136.222 333.952 134 329.375 131.405 325.017C146.094 313.996 140.601 278.543 138.059 265.177C133.785 242.776 124.355 210.563 96.4607 206.934C96.4607 206.486 96.4607 206.262 96.4607 205.814C103.943 201.581 109.902 195.031 113.47 187.117V187.117ZM125.119 360.53C122.019 359.963 117.936 355.139 116.114 351.211C114.895 348.598 115.277 346.462 117.04 346.731C119.698 347.105 124.795 352.854 126.485 356.618C127.572 359.022 127.63 361.008 125.119 360.53V360.53ZM141.967 388.726C139.029 387.889 134.622 382.752 132.669 378.839C131.347 376.196 131.596 374.15 133.374 374.568C136.018 375.181 141.482 381.318 143.303 385.127C144.464 387.591 144.464 389.442 141.967 388.726ZM193.906 354.124L193.495 352.854C201.015 350.793 210.255 350.808 205.466 328.751C204.235 323.002 201.129 317.845 196.653 314.115C207.361 304.02 205.76 278.841 203.469 266.551C198.518 240.088 189.147 210.13 173.533 187.983C182.757 190.133 189.074 183.727 192.628 175.453C193.363 187.714 194.964 199.243 196.124 207.86C198.724 227.274 213.251 283.083 230.437 304.453C214.5 316.52 218.113 346.701 223.548 370.163C216.527 360.65 206.847 353.825 193.906 354.124ZM227.94 430.75C233.39 428.077 236.048 423.193 237.091 417.653C239.823 426.21 242.717 434.737 245.787 443.175C241.894 437.201 236.577 433.035 229.042 434.409L227.94 430.75ZM275.679 399.672C272.506 400.24 269.025 394.356 267.849 388.561C266.968 384.216 268.408 381.766 270.067 381.483C273.005 380.975 277.412 387.232 278.411 392.713C278.925 395.7 278.381 399.239 275.679 399.732V399.672ZM289.119 404.81C289.016 404.078 288.957 403.704 288.84 402.973C296.698 389.129 297.389 374.494 296.096 359.47C297.301 369.849 298.887 379.108 299.768 385.306C300.517 390.548 303.382 408.349 307.113 427.778C303.852 417.369 298.432 408.2 289.119 404.899V404.81ZM341.205 379.422C338.135 380.706 335.477 375.703 335.08 370.208C334.786 366.086 336.549 363.383 338.15 362.815C341.088 361.785 344.437 366.997 344.657 372.089C344.775 374.822 343.82 378.361 341.205 379.511V379.422ZM367.719 415.263C368.776 401.434 367.88 382.827 353.529 381.214V379.511C361.414 367.655 366.137 353.921 367.234 339.653C371.259 349.733 377.766 357.573 388.004 354.109C377.443 373.269 371.758 393.982 367.733 415.248L367.719 415.263ZM402.972 311.069C402.105 296.463 391.838 278.856 376.267 281.291C364.605 283.112 361.446 297.643 361.344 308.754C359.394 304.997 356.921 301.546 353.999 298.509C366.485 289.952 369.922 252.871 369.613 238.52C369.613 237.579 369.613 236.623 369.54 235.667C377.722 264.43 388.547 290.535 400.386 287.189C410.052 284.442 413.166 256.903 413.739 244.553L414.884 244.433C416.054 252.053 418.085 259.509 420.936 266.655C420.663 266.69 420.393 266.745 420.128 266.82C404.646 271.031 402.546 295.777 402.986 311.054L402.972 311.069Z" fill="url(#paint1_linear_1443_67)"/>
<path d="M118.023 81.6679C120.124 82.6087 115.585 96.6019 123.546 105.473C115.894 100.022 112.765 90.3893 115.57 84.5651C116.466 82.5639 117.304 81.3393 118.023 81.6679Z" fill="white"/>
<path d="M216.055 75.2305C214.924 75.5889 212.089 66.6434 205.993 65.3143C208.263 65.1894 210.506 65.8639 212.344 67.224C214.182 68.5841 215.503 70.5467 216.084 72.7813C216.437 74.1403 216.437 75.0961 216.055 75.2305Z" fill="white"/>
<path d="M295.464 62.1491C294.671 63.8217 293.922 64.8969 293.584 64.434C292.482 62.9406 297.888 48.0066 294.7 35.8204C298.329 44.1835 298.475 55.8469 295.464 62.1491Z" fill="white"/>
<path d="M394.408 297.016C394.408 298.36 394.099 299.6 393.629 299.734C391.602 300.302 390.251 289.071 379.998 286.293C388.532 286.786 394.393 291.909 394.408 297.076" fill="white"/>
<path d="M424.652 154.576C424.857 155.905 424.725 156.726 424.49 156.607C423.58 156.129 421.244 145.675 415.559 139.089C419.951 142.942 423.917 149.827 424.652 154.576Z" fill="white"/>
<path d="M399.902 151.335C399.946 151.889 399.866 152.445 399.667 152.963C398.785 152.53 397.375 144.002 392.939 139.253C396.655 142.18 399.652 147.557 399.902 151.335Z" fill="white"/>
<path d="M375.268 138.551C375.812 140.329 375.988 141.628 375.444 141.538C373.623 141.225 367.483 126.604 356.951 119.944C365.221 123.468 373.197 131.876 375.268 138.551Z" fill="white"/>
<path d="M328.293 126.067C328.749 127.874 328.293 129.681 327.97 129.501C320.317 126.052 312.488 111.835 301.207 106.443C311.46 108.967 325.723 115.912 328.293 126.067Z" fill="white"/>
<path d="M318.611 233.157C312.413 230.634 308.476 223.51 309.078 217.925C309.299 215.954 309.578 214.609 310.327 214.714C311.825 214.908 311.531 228.11 318.611 233.157Z" fill="white"/>
<path d="M275.529 225.483C275.764 227.185 275.778 228.589 275.264 228.664C273.384 228.933 269.829 214.685 260.957 211.818C264.52 212.168 267.871 213.693 270.502 216.16C273.133 218.627 274.898 221.901 275.529 225.483V225.483Z" fill="white"/>
<path d="M235.843 193.479C237.649 193.105 240.543 207.263 249.665 210.264C242.232 209.996 236.048 203.708 235.417 197.242C235.211 195.091 235.24 193.598 235.843 193.479Z" fill="white"/>
<path d="M249.973 121.631C250.531 123.782 249.723 125.649 249.224 125.529C241.409 123.603 233.609 109.535 219.229 109.58C230.055 106.876 246.918 109.863 249.973 121.631Z" fill="white"/>
<path d="M179.158 142.061C179.467 144.361 179.158 146.541 178.291 146.9C173.738 148.647 167.598 131.159 150.28 134.37C164.837 129.158 177.983 133.534 179.158 142.061Z" fill="white"/>
<path d="M101.472 214.161C110.079 213.235 117.482 221.986 119.833 230.498C120.464 232.992 119.304 234.516 118.657 234.695C116.087 235.457 111.739 216.565 101.472 214.161Z" fill="white"/>
<path d="M109.621 159.713C109.416 162.7 108.931 165.179 108.255 165.582C104.98 167.523 104.377 147.347 96.5042 149.558C104.407 144.525 110.282 149.528 109.621 159.713Z" fill="white"/>
<path d="M109.68 351.301C109.078 349.673 109.019 349.076 109.343 349.151C110.15 349.375 114.278 358.38 119.728 362.681C115.333 359.996 111.833 356.031 109.68 351.301V351.301Z" fill="white"/>
<path d="M128.602 379.152C128.176 378.091 128.029 377.494 128.234 377.569C129.072 377.882 132.905 385.842 137.841 389.934C133.855 387.26 130.661 383.532 128.602 379.152V379.152Z" fill="white"/>
<path d="M163.561 402.779C161.078 401.823 152.808 382.991 140.147 373.628C150.047 378.705 160.623 390.906 163.267 399.18C163.898 401.345 164.089 402.988 163.561 402.779Z" fill="white"/>
<path d="M219.554 381.631C216.617 381.631 207.319 365.413 192.263 360.29C204.116 362.053 216.205 370.237 219.128 377.689C220.039 380.048 220.215 381.631 219.554 381.631Z" fill="white"/>
<path d="M249.224 460.946C247.344 460.304 243.348 448.252 233.713 441.084C241.85 445.057 248.592 452.583 249.518 458.318C249.782 459.961 249.606 461.066 249.224 460.946Z" fill="white"/>
<path d="M194.156 320.582C191.453 321.582 177.352 309.381 161.458 309.605C173.209 307.291 187.311 310.949 192.466 317.072C194.111 318.924 194.787 320.358 194.156 320.582Z" fill="white"/>
<path d="M249.618 309.321C259.709 310.411 271.122 314.234 273.516 323.673C274.045 325.749 273.281 327.57 272.782 327.466C266.319 326.211 258.46 316.071 248.428 311.158C248.883 310.587 249.282 309.972 249.618 309.321V309.321Z" fill="white"/>
<path d="M261.43 391.025C260.975 388.845 260.828 387.381 261.313 387.322C262.782 387.172 266.924 402.256 274.533 406.243C268.584 405.347 262.796 397.596 261.43 391.025Z" fill="white"/>
<path d="M298.387 433.274C296.918 433.722 293.981 418.594 286.137 415.353C292.365 415.846 297.741 422.342 298.564 429.764C298.769 431.616 298.784 433.139 298.387 433.274Z" fill="white"/>
<path d="M331.346 369.401C331.801 367.34 332.242 365.951 332.697 365.907C334.034 365.772 332.051 379.81 337.104 383.409C332.271 382.678 329.98 375.599 331.346 369.401Z" fill="white"/>
<path d="M361.285 398.926C361.167 400.598 360.947 402.032 360.521 402.286C359.052 403.212 358.685 389.786 351.149 389.024C357.451 387.606 361.711 392.19 361.285 398.926Z" fill="white"/>
<path d="M347.843 312.591C343.715 313.517 339.514 301.629 322.989 297.433C323.151 297.194 323.298 296.94 323.445 296.671C337.898 297.492 348.68 303.586 349.179 309.141C349.355 311.082 348.739 312.382 347.843 312.591Z" fill="white"/>
<path d="M427.311 285.591C427.223 286.756 426.87 287.652 426.591 287.742C425.445 288.13 425.225 278.782 419.247 275.795C421.501 276.221 423.539 277.432 425.01 279.22C426.482 281.008 427.295 283.26 427.311 285.591V285.591Z" fill="white"/>
<defs>
<linearGradient id="paint0_linear_1443_67" x1="193.085" y1="27.906" x2="243.002" y2="166.271" gradientUnits="userSpaceOnUse">
<stop stop-color="#11998E"/>
<stop offset="1" stop-color="#38EF7D"/>
</linearGradient>
<linearGradient id="paint1_linear_1443_67" x1="229.233" y1="117.524" x2="313.367" y2="491.018" gradientUnits="userSpaceOnUse">
<stop stop-color="#EE0979"/>
<stop offset="1" stop-color="#FF6A00"/>
</linearGradient>
</defs>
</svg>
