<?xml version="1.0" standalone="no"?>
<!DOCTYPE svg PUBLIC "-//W3C//DTD SVG 20010904//EN"
 "http://www.w3.org/TR/2001/REC-SVG-20010904/DTD/svg10.dtd">
<svg version="1.0" xmlns="http://www.w3.org/2000/svg"
 width="512.000000pt" height="512.000000pt" viewBox="0 0 512.000000 512.000000"
 preserveAspectRatio="xMidYMid meet">
<metadata>
Created by potrace 1.14, written by Peter Selinger 2001-2017
</metadata>
<g transform="translate(0.000000,512.000000) scale(0.100000,-0.100000)"
fill="#000000" stroke="none">
<path d="M2770 4983 c-120 -57 -269 -250 -366 -474 l-48 -109 -29 53 c-118
208 -265 260 -389 136 -56 -56 -79 -123 -82 -235 0 -41 -2 -74 -3 -74 -2 0
-37 23 -78 51 -292 196 -588 235 -722 97 -64 -67 -78 -101 -77 -188 1 -110 51
-218 161 -347 l44 -53 -43 16 c-92 33 -175 -1 -290 -118 -113 -116 -202 -238
-263 -363 -72 -146 -89 -214 -90 -350 0 -132 26 -225 89 -320 l41 -60 -33 -65
c-78 -156 -50 -345 81 -549 26 -39 47 -80 47 -90 0 -43 52 -218 94 -318 86
-202 286 -526 462 -748 165 -208 450 -481 549 -526 41 -19 114 -24 149 -10 15
6 33 -6 83 -56 81 -81 170 -139 238 -154 70 -15 199 -7 247 16 l37 18 51 -27
c87 -48 195 -48 265 0 32 22 42 24 68 15 67 -24 144 -7 212 44 39 30 53 35
103 35 57 0 132 26 147 50 5 8 23 9 56 5 93 -13 159 24 224 124 24 37 55 73
69 80 48 26 189 227 305 435 197 355 354 843 397 1236 5 52 13 72 37 99 80 93
112 235 111 496 -1 354 -62 645 -187 890 -40 78 -68 116 -127 176 -120 120
-215 155 -305 109 -22 -11 -56 -20 -77 -20 -35 0 -46 8 -111 73 -88 89 -158
127 -234 127 -61 0 -95 -15 -137 -58 l-28 -30 -75 59 c-68 54 -203 129 -233
129 -8 0 -10 9 -6 28 36 163 48 275 44 402 -4 107 -9 146 -26 191 -62 158
-207 221 -352 152z m216 -228 c26 -85 12 -322 -27 -467 -9 -34 -13 -38 -43
-38 -58 0 -127 -31 -176 -79 -26 -25 -52 -55 -57 -65 -10 -18 -12 -18 -44 12
-33 31 -145 92 -168 92 -17 0 -14 14 25 124 67 185 155 343 210 376 20 11 42
19 48 17 6 -2 16 1 21 8 12 13 124 50 143 46 6 -1 12 3 12 9 0 6 10 10 22 8
16 -2 26 -14 34 -43z m-841 -307 c36 -43 115 -189 115 -213 0 -8 -18 -16 -42
-20 -23 -4 -74 -24 -114 -45 l-72 -37 -12 59 c-23 118 -12 263 21 284 8 5 9 3
4 -6 -5 -8 1 -7 16 3 34 25 43 22 84 -25z m-955 -208 c0 -76 4 -80 57 -58 15
6 32 10 37 9 5 -1 17 6 27 15 11 9 19 13 19 9 0 -4 8 -1 18 8 10 10 22 14 25
11 4 -4 13 -2 21 5 8 6 18 10 22 9 5 -1 35 8 66 21 l57 23 58 -33 c90 -51 171
-107 255 -176 l77 -64 -17 -29 c-9 -17 -21 -28 -27 -26 -146 65 -228 78 -338
52 -66 -16 -147 -51 -199 -87 l-26 -19 -53 62 c-85 102 -116 158 -124 220 -5
42 -3 63 9 87 26 48 36 37 36 -39z m1941 -231 c31 -15 71 -40 89 -56 33 -27
77 -109 66 -121 -12 -11 -60 24 -110 82 -28 32 -73 76 -101 98 -56 46 -38 45
56 -3z m-708 -13 c47 -27 77 -68 77 -106 0 -37 -26 -26 -135 59 -31 25 -80 53
-108 63 l-52 19 86 -4 c72 -3 94 -8 132 -31z m1272 -169 c40 -44 74 -111 62
-123 -3 -3 -22 20 -42 51 -20 31 -57 80 -83 108 -45 48 -46 50 -13 31 18 -10
53 -41 76 -67z m-1979 -46 c23 -10 49 -29 58 -42 18 -27 22 -89 5 -89 -6 0
-37 23 -69 50 -62 53 -112 79 -157 81 l-28 1 25 8 c45 14 124 10 166 -9z
m2520 -169 c9 -23 14 -45 10 -49 -3 -3 -11 8 -17 26 -7 18 -22 54 -36 80 l-23
46 25 -30 c14 -16 32 -49 41 -73z m-246 32 c20 -59 5 -60 -17 0 -14 38 -16 53
-8 46 8 -7 19 -27 25 -46z m-2914 -29 c21 -33 28 -93 14 -129 -13 -36 -22 -27
-45 43 -10 30 -28 65 -41 78 -13 13 -24 26 -24 28 0 3 18 5 40 5 31 0 43 -5
56 -25z m1320 -487 c15 -29 40 -65 56 -80 33 -31 23 -36 -22 -13 -37 19 -70
66 -77 110 -8 52 12 44 43 -17z m285 -151 c34 -22 79 -96 79 -130 0 -26 -17
-12 -41 34 -11 22 -36 58 -56 79 -40 45 -33 51 18 17z m-1569 -29 c40 -28 81
-96 82 -135 2 -52 -16 -42 -56 32 -21 39 -55 85 -76 104 l-37 34 29 -7 c17 -4
43 -17 58 -28z m2004 -5 c12 -59 35 -117 51 -136 17 -19 17 -20 -4 -8 -36 18
-66 70 -71 122 -5 54 13 70 24 22z m1128 -609 c19 -20 26 -37 25 -63 l0 -36
-20 45 c-11 25 -27 53 -36 62 -26 28 2 21 31 -8z m-389 -84 c20 0 75 -50 86
-77 5 -14 5 -31 0 -40 -7 -13 -14 -7 -36 31 -15 26 -44 59 -64 73 -20 14 -28
23 -18 19 10 -3 25 -6 32 -6z m-492 -120 c80 -25 130 -67 125 -106 -2 -15 -8
-29 -14 -31 -6 -2 -41 24 -78 57 -39 34 -90 68 -120 79 l-51 20 36 0 c20 1 66
-8 102 -19z m-1552 -116 c59 -17 129 -65 129 -90 0 -8 -2 -14 -4 -14 -3 0 -45
21 -95 46 -50 25 -119 51 -153 59 l-63 13 64 1 c36 1 90 -6 122 -15z m741 5
c96 -21 169 -74 184 -134 15 -60 -26 -48 -136 40 -36 29 -75 58 -87 64 -13 6
-23 18 -23 26 0 18 -4 18 62 4z m-1437 -419 c8 -16 30 -46 48 -67 27 -30 28
-34 9 -24 -22 12 -82 95 -82 113 0 16 10 7 25 -22z m921 -116 c64 -30 137 -94
154 -133 25 -61 2 -53 -76 26 -43 44 -104 94 -134 112 -42 24 -48 30 -25 25
17 -4 53 -17 81 -30z m1305 -97 c4 -34 10 -70 14 -79 12 -30 -13 -20 -30 12
-15 30 -20 95 -9 125 10 26 18 9 25 -58z m-1806 -110 c66 -71 109 -144 103
-174 -2 -12 -24 13 -67 77 -35 52 -87 119 -115 149 -47 49 -48 52 -17 35 18
-11 62 -50 96 -87z m-207 9 c22 -30 35 -53 28 -50 -13 5 -76 87 -76 98 0 13 9
4 48 -48z m1328 -107 c19 -39 46 -82 59 -95 35 -35 12 -29 -30 8 -41 36 -75
95 -75 133 0 14 2 25 5 25 3 0 21 -32 41 -71z m951 4 c8 -21 12 -47 8 -65 -8
-36 -17 -28 -35 30 -8 24 -24 52 -36 61 -30 23 -21 32 18 19 20 -7 35 -22 45
-45z m-669 -256 c30 -29 52 -79 52 -119 0 -34 -16 -18 -39 38 -13 30 -38 71
-56 90 -28 29 -30 34 -12 28 12 -3 37 -20 55 -37z m-513 -279 c43 -39 75 -91
75 -122 0 -29 -15 -17 -50 41 -19 32 -52 78 -74 102 -50 54 -16 40 49 -21z"/>
</g>
</svg>
